<svg width="16" height="16" viewBox="0 0 16 16" fill="none" xmlns="http://www.w3.org/2000/svg">
<g clip-path="url(#clip0)">
<path d="M16 12.392C15.7671 12.4801 15.5101 12.4799 15.2774 12.3915C15.0446 12.303 14.8523 12.1325 14.7367 11.912L12.4367 8.73133L12.1033 8.28667L9.43468 11.916C9.326 12.1272 9.14411 12.2917 8.92301 12.3785C8.70191 12.4654 8.45674 12.4688 8.23334 12.388L11.672 7.77467L8.47334 3.60733C8.70334 3.52445 8.95487 3.52335 9.18558 3.60422C9.41629 3.68509 9.61209 3.84299 9.74001 4.05133L12.124 7.27133L14.5213 4.06467C14.6309 3.85719 14.8128 3.69719 15.0326 3.61508C15.2523 3.53298 15.4946 3.53449 15.7133 3.61933L14.472 5.26667L12.7907 7.45533C12.744 7.49698 12.7066 7.54803 12.681 7.60513C12.6555 7.66223 12.6422 7.7241 12.6422 7.78667C12.6422 7.84924 12.6555 7.9111 12.681 7.9682C12.7066 8.0253 12.744 8.07635 12.7907 8.118L15.9933 12.3927L16 12.392ZM0.00134133 7.71733L0.281341 6.334C1.05067 3.59867 4.18667 2.46067 6.34401 4.154C7.60734 5.14667 7.92268 6.552 7.86068 8.136H0.744008C0.628675 10.9647 2.67001 12.6727 5.28001 11.8C5.70311 11.6477 6.08184 11.3928 6.38225 11.0582C6.68266 10.7236 6.89537 10.3197 7.00134 9.88267C7.13934 9.43867 7.36667 9.36267 7.78401 9.49067C7.71446 10.0323 7.52301 10.551 7.22406 11.0079C6.9251 11.4649 6.52642 11.848 6.05801 12.1287C5.28429 12.5519 4.39656 12.7196 3.52176 12.6079C2.64696 12.4962 1.82987 12.1107 1.18734 11.5067C0.552028 10.7916 0.168059 9.88833 0.094008 8.93467C0.094008 8.778 0.0406747 8.63133 0.00467466 8.49067C0.00142935 8.23312 -0.000126238 7.97556 7.99752e-06 7.718L0.00134133 7.71733ZM0.752675 7.52667H7.18868C7.14868 5.476 5.85467 4.02133 4.12867 4.008C2.20734 3.98133 0.832675 5.404 0.748008 7.51733L0.752675 7.52667Z" fill="black"/>
</g>
<defs>
<clipPath id="clip0">
<rect width="16" height="16" fill="white"/>
</clipPath>
</defs>
</svg>
