<svg width="88" height="88" viewBox="0 0 88 88" fill="none" xmlns="http://www.w3.org/2000/svg">
<circle cx="44" cy="44" r="44" fill="white"/>
<path d="M48.3333 51.3333C51.555 51.3333 54.1667 48.7216 54.1667 45.5C54.1667 42.2783 51.555 39.6666 48.3333 39.6666C45.1117 39.6666 42.5 42.2783 42.5 45.5C42.5 48.7216 45.1117 51.3333 48.3333 51.3333Z" fill="#19BCFE"/>
<path fill-rule="evenodd" clip-rule="evenodd" d="M36.6667 63C38.2138 63 39.6975 62.3855 40.7915 61.2915C41.8855 60.1975 42.5 58.7138 42.5 57.1667V51.3334H36.6667C35.1196 51.3334 33.6359 51.948 32.5419 53.0419C31.448 54.1359 30.8334 55.6196 30.8334 57.1667C30.8334 58.7138 31.448 60.1975 32.5419 61.2915C33.6359 62.3855 35.1196 63 36.6667 63V63Z" fill="#09CF83"/>
<path fill-rule="evenodd" clip-rule="evenodd" d="M36.6667 51.3333H42.5V39.6666H36.6667C35.1196 39.6666 33.6359 40.2812 32.5419 41.3752C31.448 42.4691 30.8334 43.9529 30.8334 45.5C30.8334 47.0471 31.448 48.5308 32.5419 49.6247C33.6359 50.7187 35.1196 51.3333 36.6667 51.3333V51.3333Z" fill="#A259FF"/>
<path fill-rule="evenodd" clip-rule="evenodd" d="M36.6667 39.6667H42.5V28H36.6667C35.1196 28 33.6359 28.6146 32.5419 29.7085C31.448 30.8025 30.8334 32.2862 30.8334 33.8333C30.8334 35.3804 31.448 36.8642 32.5419 37.9581C33.6359 39.0521 35.1196 39.6667 36.6667 39.6667V39.6667Z" fill="#F24E1E"/>
<path fill-rule="evenodd" clip-rule="evenodd" d="M48.3333 39.6667H42.5V28H48.3333C49.8804 28 51.3642 28.6146 52.4581 29.7085C53.5521 30.8025 54.1667 32.2862 54.1667 33.8333C54.1667 35.3804 53.5521 36.8642 52.4581 37.9581C51.3642 39.0521 49.8804 39.6667 48.3333 39.6667Z" fill="#FF7262"/>
</svg>
