<svg width="15" height="15" viewBox="0 0 15 15" fill="none" xmlns="http://www.w3.org/2000/svg">
<path d="M2.76656 12.7505L1.71328 0.9375H13.2867L12.232 12.7486L7.49297 14.0625L2.76656 12.7505Z" fill="#E44F26"/>
<path d="M7.5 13.0584L11.3297 11.9967L12.2306 1.90359H7.5V13.0584Z" fill="#F1662A"/>
<path d="M7.5 6.28453H5.58281L5.45063 4.80093H7.5V3.35203H3.86719L3.90188 3.74109L4.25766 7.73343H7.5V6.28453V6.28453Z" fill="#EBEBEB"/>
<path d="M7.5 10.0472L7.49344 10.0491L5.88 9.6136L5.77687 8.45813H4.32234L4.52531 10.7325L7.49344 11.5566L7.5 11.5547V10.0472Z" fill="#EBEBEB"/>
<path d="M7.49485 6.28453V7.73344H9.27891L9.1111 9.61266L7.49485 10.0486V11.5561L10.4653 10.7325L10.4869 10.4878L10.8272 6.67359L10.8628 6.28453H7.49485V6.28453Z" fill="white"/>
<path d="M7.49485 3.35203V4.80093H10.9945L11.0236 4.47562L11.0897 3.74109L11.1244 3.35203H7.49485V3.35203Z" fill="white"/>
</svg>
