<svg width="16" height="16" viewBox="0 0 16 16" fill="none" xmlns="http://www.w3.org/2000/svg">
<path d="M0 0H16V16H0V0Z" fill="#F7DF1E"/>
<path d="M4.207 13.3708L5.43138 12.6298C5.66763 13.0486 5.8825 13.4029 6.39794 13.4029C6.892 13.4029 7.20356 13.2097 7.20356 12.4579V7.34557H8.70713V12.4792C8.70713 14.0365 7.79425 14.7454 6.46238 14.7454C5.25956 14.7454 4.56138 14.1224 4.20694 13.3706" fill="black"/>
<path d="M9.52381 13.2096L10.7481 12.5008C11.0704 13.0271 11.4893 13.4138 12.2303 13.4138C12.8533 13.4138 13.2506 13.1023 13.2506 12.6726C13.2506 12.1571 12.8424 11.9745 12.1551 11.6739L11.7793 11.5126C10.6944 11.0509 9.97488 10.4709 9.97488 9.24657C9.97488 8.11882 10.8341 7.25957 12.1766 7.25957C13.1325 7.25957 13.8199 7.59257 14.3139 8.4625L13.1431 9.21438C12.8853 8.75257 12.6062 8.57 12.1766 8.57C11.7362 8.57 11.4569 8.84925 11.4569 9.21438C11.4569 9.66544 11.7362 9.84813 12.3806 10.1274L12.7564 10.2884C14.0346 10.8363 14.7541 11.3947 14.7541 12.6512C14.7541 14.0046 13.6909 14.7456 12.2624 14.7456C10.8663 14.7456 9.96406 14.0797 9.52375 13.2097" fill="black"/>
</svg>
