<svg width="16" height="16" viewBox="0 0 16 16" fill="none" xmlns="http://www.w3.org/2000/svg">
<g clip-path="url(#clip0)">
<path d="M11.462 6.37C10.6193 2.65 8.62733 1.42733 8.41333 0.96C8.22666 0.697333 8.06 0.324 7.92333 0C7.89933 0.33 7.88666 0.456667 7.57466 0.789333C7.09266 1.16667 4.616 3.244 4.41466 7.46933C4.22666 11.4107 7.26133 13.7593 7.67333 14.0587L7.72 14.092C7.80579 14.7265 7.87914 15.3626 7.94 16H8.26066C8.33661 15.3121 8.45011 14.6288 8.60066 13.9533C8.87866 13.756 9.00333 13.6447 9.16733 13.4913C9.94397 12.7729 10.5612 11.8994 10.9791 10.9274C11.397 9.95545 11.6062 8.90659 11.5933 7.84867C11.6 7.306 11.5247 6.74067 11.462 6.37V6.37ZM7.90466 11.8333C7.90466 11.8333 7.90466 6.306 8.088 6.30667C8.23 6.30667 8.41466 13.4367 8.41466 13.4367C8.16066 13.4067 7.90466 12.2633 7.90466 11.8333Z" fill="#66B848"/>
</g>
<defs>
<clipPath id="clip0">
<rect width="16" height="16" fill="white"/>
</clipPath>
</defs>
</svg>
