<svg width="88" height="88" viewBox="0 0 88 88" fill="none" xmlns="http://www.w3.org/2000/svg">
<circle cx="44" cy="44" r="44" fill="white"/>
<g clip-path="url(#clip0)">
<path d="M44.6952 60.9047C44.5124 60.9047 44.3418 60.8562 44.1833 60.7712L42.5621 59.8116C42.3183 59.678 42.4402 59.6294 42.5134 59.6051C42.8424 59.4958 42.9034 59.4714 43.2447 59.2772C43.2813 59.2528 43.3301 59.265 43.3666 59.2893L44.61 60.0302C44.6587 60.0545 44.7197 60.0545 44.7562 60.0302L49.6199 57.2244C49.6686 57.2001 49.6931 57.1515 49.6931 57.0908V51.4913C49.6931 51.4305 49.6686 51.382 49.6199 51.3576L44.7562 48.564C44.7075 48.5396 44.6465 48.5396 44.61 48.564L39.7463 51.3576C39.6976 51.3819 39.6731 51.4427 39.6731 51.4912V57.0907C39.6731 57.1394 39.6976 57.2 39.7463 57.2244L41.075 57.9896C41.7942 58.354 42.2452 57.9288 42.2452 57.5037V51.9771C42.2452 51.9042 42.3061 51.8313 42.3915 51.8313H43.0131C43.0863 51.8313 43.1594 51.8921 43.1594 51.9771V57.5037C43.1594 58.4633 42.6352 59.0221 41.721 59.0221C41.4407 59.0221 41.2213 59.0221 40.5995 58.7183L39.3197 57.9896C39.0028 57.8075 38.8077 57.4673 38.8077 57.1029V51.5034C38.8077 51.139 39.0028 50.7989 39.3197 50.6167L44.1833 47.8109C44.4881 47.6408 44.9026 47.6408 45.2073 47.8109L50.0709 50.6167C50.3878 50.7989 50.5829 51.139 50.5829 51.5034V57.1029C50.5829 57.4673 50.3878 57.8075 50.0709 57.9896L45.2073 60.7954C45.0487 60.8684 44.866 60.9047 44.6953 60.9047H44.6952ZM46.1946 57.0543C44.0615 57.0543 43.6226 56.0826 43.6226 55.2567C43.6226 55.1838 43.6836 55.1109 43.7689 55.1109H44.4028C44.4758 55.1109 44.5368 55.1595 44.5368 55.2324C44.6344 55.8761 44.9147 56.1919 46.2068 56.1919C47.2307 56.1919 47.6697 55.9611 47.6697 55.4145C47.6697 55.0987 47.5476 54.868 45.9508 54.7101C44.6221 54.5764 43.7932 54.285 43.7932 53.2282C43.7932 52.2443 44.6222 51.6613 46.0118 51.6613C47.572 51.6613 48.34 52.1958 48.4376 53.3617C48.4376 53.3983 48.4253 53.4346 48.401 53.4711C48.3765 53.4954 48.34 53.5197 48.3034 53.5197H47.6695C47.6086 53.5197 47.5476 53.4711 47.5355 53.4104C47.3892 52.7424 47.0113 52.5237 46.0118 52.5237C44.8903 52.5237 44.7562 52.9124 44.7562 53.2039C44.7562 53.5561 44.9147 53.6654 46.4262 53.8598C47.9255 54.0542 48.6326 54.3335 48.6326 55.3781C48.6203 56.447 47.7427 57.0543 46.1946 57.0543Z" fill="#539E43"/>
<path d="M29.6046 39.0047C29.6046 38.7861 29.4826 38.5795 29.2876 38.4702L24.1192 35.5065C24.0338 35.4579 23.9364 35.4336 23.8389 35.4214H23.7901C23.6926 35.4214 23.5951 35.4579 23.5097 35.5065L18.3413 38.4702C18.1462 38.5795 18.0244 38.786 18.0244 39.0047L18.0366 46.9728C18.0366 47.0821 18.0976 47.1914 18.1951 47.24C18.2926 47.3008 18.4144 47.3008 18.4999 47.24L21.5716 45.4909C21.7667 45.3816 21.8886 45.1751 21.8886 44.9565V41.2275C21.8886 41.0089 22.0104 40.8024 22.2055 40.6931L23.5097 39.94C23.6073 39.8792 23.717 39.8548 23.8267 39.8548C23.9364 39.8548 24.046 39.8792 24.1315 39.94L25.4357 40.6931C25.6308 40.8024 25.7526 41.0088 25.7526 41.2275V44.9565C25.7526 45.1751 25.8746 45.3816 26.0696 45.4909L29.1413 47.24C29.2389 47.3008 29.3607 47.3008 29.4583 47.24C29.5558 47.1914 29.6168 47.0821 29.6168 46.9728L29.6046 39.0047Z" fill="#333333"/>
<path d="M54.4471 28.0365C54.3496 27.9878 54.2277 27.9878 54.1423 28.0365C54.0448 28.0972 53.9838 28.1943 53.9838 28.3036V36.1989C53.9838 36.2718 53.9474 36.3446 53.8742 36.3933C53.8011 36.4296 53.7279 36.4296 53.6548 36.3933L52.3627 35.6523C52.268 35.5986 52.1608 35.5703 52.0518 35.5703C51.9428 35.5703 51.8357 35.5986 51.7409 35.6523L46.5725 38.6282C46.3775 38.7375 46.2556 38.944 46.2556 39.1626V45.1022C46.2556 45.3208 46.3775 45.5274 46.5725 45.6367L51.7409 48.6126C51.8357 48.6664 51.9428 48.6946 52.0518 48.6946C52.1608 48.6946 52.268 48.6664 52.3627 48.6126L57.5311 45.6367C57.7261 45.5274 57.848 45.3209 57.848 45.1022V30.2957C57.848 30.0649 57.7261 29.8585 57.5311 29.7491L54.4472 28.0365H54.4471ZM53.9717 43.1467C53.9717 43.2075 53.9473 43.256 53.8985 43.2803L52.1311 44.3006C52.1064 44.3126 52.0793 44.3188 52.0518 44.3188C52.0243 44.3188 51.9972 44.3126 51.9726 44.3006L50.2051 43.2803C50.1563 43.256 50.1319 43.1953 50.1319 43.1467V41.1061C50.1319 41.0453 50.1563 40.9968 50.2051 40.9725L51.9726 39.9521C51.9972 39.9401 52.0243 39.9339 52.0518 39.9339C52.0793 39.9339 52.1064 39.9401 52.1311 39.9521L53.8985 40.9725C53.9473 40.9967 53.9717 41.0575 53.9717 41.1061V43.1467Z" fill="#333333"/>
<path d="M71.6465 41.0575C71.8416 40.9482 71.9513 40.7417 71.9513 40.523V39.0776C71.9513 38.859 71.8293 38.6525 71.6465 38.5432L66.5147 35.5795C66.4199 35.5258 66.3128 35.4976 66.2039 35.4976C66.0949 35.4976 65.9877 35.5258 65.893 35.5795L60.7246 38.5553C60.5295 38.6646 60.4077 38.8711 60.4077 39.0898V45.0294C60.4077 45.248 60.5295 45.4545 60.7246 45.5638L65.8564 48.479C66.0516 48.5883 66.2831 48.5883 66.4659 48.479L69.5742 46.7543C69.6718 46.7057 69.7327 46.5964 69.7327 46.4871C69.7327 46.3778 69.6718 46.2685 69.5742 46.2198L64.3815 43.2439C64.284 43.1833 64.223 43.0861 64.223 42.9768V41.1184C64.223 41.0091 64.284 40.8998 64.3815 40.8511L66.0027 39.928C66.0502 39.8982 66.1051 39.8824 66.1612 39.8824C66.2173 39.8824 66.2722 39.8982 66.3197 39.928L67.9408 40.8511C68.0384 40.9119 68.0993 41.009 68.0993 41.1184V42.576C68.0993 42.6853 68.1603 42.7946 68.2577 42.8431C68.3553 42.9039 68.4771 42.9039 68.5747 42.8431L71.6465 41.0575V41.0575Z" fill="#333333"/>
<path d="M66.1247 40.7782C66.1427 40.7663 66.1639 40.76 66.1856 40.76C66.2072 40.76 66.2284 40.7663 66.2465 40.7782L67.2339 41.3491C67.2705 41.3732 67.2948 41.4097 67.2948 41.4584V42.6001C67.2948 42.6487 67.2705 42.6852 67.2339 42.7094L66.2465 43.2803C66.2284 43.2922 66.2072 43.2985 66.1856 43.2985C66.1639 43.2985 66.1427 43.2922 66.1247 43.2803L65.1373 42.7094C65.1007 42.6852 65.0763 42.6487 65.0763 42.6001V41.4584C65.0763 41.4097 65.1007 41.3732 65.1373 41.3491L66.1247 40.7782V40.7782Z" fill="#539E43"/>
<mask id="mask0" style="mask-type:alpha" maskUnits="userSpaceOnUse" x="32" y="35" width="12" height="14">
<path d="M38.247 35.6038C38.1522 35.5501 38.0451 35.5219 37.9361 35.5219C37.8271 35.5219 37.72 35.5501 37.6253 35.6038L32.4935 38.5552C32.2984 38.6645 32.1887 38.871 32.1887 39.0896V45.005C32.1887 45.2236 32.3106 45.4302 32.4935 45.5395L37.6253 48.4911C37.72 48.5448 37.8271 48.573 37.9361 48.573C38.0451 48.573 38.1522 48.5448 38.247 48.4911L43.3789 45.5395C43.5739 45.4302 43.6837 45.2236 43.6837 45.005V39.0897C43.6837 38.8711 43.5616 38.6646 43.3789 38.5553L38.247 35.6038Z" fill="white"/>
</mask>
<g mask="url(#mask0)">
<path d="M38.247 35.6038C38.1522 35.5501 38.0451 35.5219 37.9361 35.5219C37.8271 35.5219 37.72 35.5501 37.6253 35.6038L32.4935 38.5552C32.2984 38.6645 32.1887 38.871 32.1887 39.0896V45.005C32.1887 45.2236 32.3106 45.4302 32.4935 45.5395L37.6253 48.4911C37.72 48.5448 37.8271 48.573 37.9361 48.573C38.0451 48.573 38.1522 48.5448 38.247 48.4911L43.3789 45.5395C43.5739 45.4302 43.6837 45.2236 43.6837 45.005V39.0897C43.6837 38.8711 43.5616 38.6646 43.3789 38.5553L38.247 35.6038Z" fill="url(#paint0_linear)"/>
<path d="M43.391 38.5553L38.2349 35.6038C38.1842 35.5783 38.1311 35.558 38.0764 35.5431L32.2985 45.4061C32.3463 45.4643 32.4041 45.5137 32.4692 45.5519L37.6254 48.5035C37.7717 48.5885 37.9423 48.6128 38.1007 48.5641L43.5252 38.6769C43.4886 38.6284 43.4398 38.5918 43.391 38.5554V38.5553Z" fill="url(#paint1_linear)"/>
<path fill-rule="evenodd" clip-rule="evenodd" d="M43.4032 45.5395C43.5495 45.4545 43.6592 45.3087 43.708 45.1509L38.0518 35.5308C37.9055 35.5066 37.747 35.5186 37.6131 35.6037L32.4934 38.5432L38.0152 48.5761C38.0955 48.563 38.1735 48.5385 38.2468 48.5033L43.4031 45.5396L43.4032 45.5395Z" fill="url(#paint2_linear)"/>
<path fill-rule="evenodd" clip-rule="evenodd" d="M43.4032 45.5396L38.2592 48.4912C38.1866 48.5281 38.1083 48.5527 38.0276 48.5641L38.1251 48.7463L43.8298 45.4547V45.3818L43.6836 45.1388C43.6592 45.3088 43.5495 45.4546 43.4032 45.5396V45.5396Z" fill="url(#paint3_linear)"/>
<path fill-rule="evenodd" clip-rule="evenodd" d="M43.4032 45.5396L38.2592 48.4912C38.1866 48.5281 38.1083 48.5527 38.0276 48.5641L38.1251 48.7463L43.8298 45.4547V45.3818L43.6836 45.1388C43.6592 45.3088 43.5495 45.4546 43.4032 45.5396V45.5396Z" fill="url(#paint4_linear)"/>
</g>
</g>
<defs>
<linearGradient id="paint0_linear" x1="40.0269" y1="37.8041" x2="34.4303" y2="46.6293" gradientUnits="userSpaceOnUse">
<stop stop-color="#41873F"/>
<stop offset="0.3288" stop-color="#418B3D"/>
<stop offset="0.6352" stop-color="#419637"/>
<stop offset="0.9319" stop-color="#3FA92D"/>
<stop offset="1" stop-color="#3FAE2A"/>
</linearGradient>
<linearGradient id="paint1_linear" x1="37.1571" y1="42.7404" x2="51.2216" y2="35.0719" gradientUnits="userSpaceOnUse">
<stop offset="0.1376" stop-color="#41873F"/>
<stop offset="0.4032" stop-color="#54A044"/>
<stop offset="0.7136" stop-color="#66B848"/>
<stop offset="0.9081" stop-color="#6CC04A"/>
</linearGradient>
<linearGradient id="paint2_linear" x1="32.0012" y1="42.0476" x2="43.8761" y2="42.0476" gradientUnits="userSpaceOnUse">
<stop offset="0.09192" stop-color="#6CC04A"/>
<stop offset="0.2864" stop-color="#66B848"/>
<stop offset="0.5968" stop-color="#54A044"/>
<stop offset="0.8624" stop-color="#41873F"/>
</linearGradient>
<linearGradient id="paint3_linear" x1="32.0013" y1="46.9525" x2="43.8761" y2="46.9525" gradientUnits="userSpaceOnUse">
<stop offset="0.09192" stop-color="#6CC04A"/>
<stop offset="0.2864" stop-color="#66B848"/>
<stop offset="0.5968" stop-color="#54A044"/>
<stop offset="0.8624" stop-color="#41873F"/>
</linearGradient>
<linearGradient id="paint4_linear" x1="45.6061" y1="37.5245" x2="42.6183" y2="53.2362" gradientUnits="userSpaceOnUse">
<stop stop-color="#41873F"/>
<stop offset="0.3288" stop-color="#418B3D"/>
<stop offset="0.6352" stop-color="#419637"/>
<stop offset="0.9319" stop-color="#3FA92D"/>
<stop offset="1" stop-color="#3FAE2A"/>
</linearGradient>
<clipPath id="clip0">
<rect width="54" height="33" fill="white" transform="translate(18 28)"/>
</clipPath>
</defs>
</svg>
