<svg width="13" height="16" viewBox="0 0 13 16" fill="none" xmlns="http://www.w3.org/2000/svg">
<path d="M6.5 15.9708C6.29814 15.9708 6.10975 15.9121 5.9348 15.8094L4.14492 14.6503C3.87578 14.4889 4.01035 14.4303 4.09109 14.4009C4.45443 14.2689 4.52171 14.2395 4.89851 14.0047C4.93893 13.9754 4.99276 13.9901 5.03308 14.0194L6.4058 14.9144C6.45963 14.9438 6.52691 14.9438 6.56729 14.9144L11.9369 11.5252C11.9907 11.4959 12.0176 11.4372 12.0176 11.3638V4.60006C12.0176 4.5267 11.9907 4.46801 11.9369 4.43867L6.56729 1.06411C6.51346 1.03477 6.44617 1.03477 6.4058 1.06411L1.03619 4.43873C0.982363 4.46807 0.955449 4.54143 0.955449 4.60011V11.3638C0.955449 11.4225 0.982363 11.4959 1.03619 11.5252L2.50311 12.4495C3.29712 12.8897 3.79498 12.3762 3.79498 11.8627V5.18691C3.79498 5.09888 3.86232 5.01085 3.95652 5.01085H4.64288C4.72362 5.01085 4.80436 5.08421 4.80436 5.18691V11.8626C4.80436 13.0217 4.22566 13.6966 3.21633 13.6966C2.90682 13.6966 2.66459 13.6966 1.97829 13.3298L0.565195 12.4495C0.215313 12.2294 0 11.8186 0 11.3785V4.61478C0 4.17464 0.215313 3.76385 0.565195 3.54372L5.9348 0.154548C6.27123 -0.0508498 6.72877 -0.0508498 7.0652 0.154548L12.4348 3.54372C12.7847 3.76379 13 4.17459 13 4.61478V11.3785C13 11.8187 12.7847 12.2295 12.4348 12.4495L7.0652 15.8388C6.89025 15.9268 6.6884 15.9709 6.5 15.9709V15.9708ZM8.15527 11.3198C5.80018 11.3198 5.31573 10.1461 5.31573 9.14837C5.31573 9.06035 5.38302 8.97232 5.47721 8.97232H6.17698C6.25772 8.97232 6.32506 9.031 6.32506 9.11903C6.43271 9.89661 6.74223 10.2781 8.16872 10.2781C9.29916 10.2781 9.78367 9.99936 9.78367 9.33916C9.78367 8.95765 9.6491 8.67889 7.88613 8.48811C6.41926 8.32673 5.50413 7.97462 5.50413 6.69821C5.50413 5.50973 6.41921 4.80551 7.95341 4.80551C9.67596 4.80551 10.5238 5.45105 10.6315 6.85954C10.6315 6.90356 10.618 6.94757 10.5911 6.99159C10.5642 7.02093 10.5238 7.05027 10.4834 7.05027H9.78367C9.71633 7.05027 9.6491 6.99159 9.63559 6.91823C9.47411 6.11131 9.05694 5.84723 7.95341 5.84723C6.71536 5.84723 6.56729 6.31671 6.56729 6.66882C6.56729 7.09434 6.74223 7.22633 8.41095 7.46107C10.0663 7.69581 10.8468 8.0333 10.8468 9.29509C10.8333 10.5862 9.86441 11.3198 8.15527 11.3198V11.3198Z" fill="#539E43"/>
</svg>
