<svg width="16" height="16" viewBox="0 0 16 16" fill="none" xmlns="http://www.w3.org/2000/svg">
<path d="M8 9.237C8.69036 9.237 9.25 8.67736 9.25 7.987C9.25 7.29664 8.69036 6.737 8 6.737C7.30964 6.737 6.75 7.29664 6.75 7.987C6.75 8.67736 7.30964 9.237 8 9.237Z" fill="#00D8FF"/>
<path d="M8 10.853C6.49757 10.8893 4.9989 10.6868 3.56 10.253C2.89531 10.0423 2.27537 9.71037 1.7315 9.274C1.52397 9.12493 1.35114 8.93272 1.22487 8.71057C1.09861 8.48842 1.02189 8.24159 1 7.987C1 7.1605 1.908 6.3505 3.429 5.8205C4.90637 5.35088 6.44996 5.12327 8 5.1465C9.52935 5.12513 11.0523 5.34863 12.511 5.8085C13.1511 6.01258 13.7501 6.32846 14.28 6.7415C14.484 6.88362 14.6542 7.06886 14.7786 7.2841C14.9031 7.49934 14.9786 7.73931 15 7.987C15 8.846 13.985 9.7165 12.35 10.2575C10.939 10.6772 9.47192 10.878 8 10.853ZM8 5.7445C6.51706 5.72468 5.04041 5.94105 3.6255 6.3855C2.2255 6.874 1.598 7.542 1.598 7.9855C1.598 8.4495 2.2725 9.179 3.7535 9.6855C5.13004 10.0984 6.56331 10.2906 8 10.255C9.4082 10.2802 10.812 10.0896 12.1625 9.69C13.7 9.1805 14.4 8.45 14.4 7.987C14.3748 7.82811 14.3169 7.67619 14.2299 7.54081C14.143 7.40544 14.029 7.28956 13.895 7.2005C13.4209 6.83407 12.8858 6.55412 12.3145 6.3735C10.919 5.93538 9.46249 5.72304 8 5.7445Z" fill="#00D8FF"/>
<path d="M5.15999 14.2215C4.92674 14.2269 4.69624 14.1703 4.49199 14.0575C3.77599 13.6445 3.52799 12.4535 3.82849 10.871C4.15981 9.35655 4.73389 7.90565 5.52849 6.5745C6.27385 5.23905 7.22808 4.03146 8.35499 2.9975C8.85157 2.54485 9.42442 2.18377 10.047 1.931C10.2722 1.82547 10.5178 1.77076 10.7665 1.77076C11.0152 1.77076 11.2608 1.82547 11.486 1.931C12.2305 2.36 12.477 3.674 12.1295 5.3605C11.7879 6.79278 11.2288 8.16422 10.4715 9.427C9.75235 10.7467 8.82817 11.9438 7.73349 12.9735C7.21888 13.4439 6.62166 13.815 5.97199 14.068C5.7119 14.1645 5.43737 14.2164 5.15999 14.2215ZM6.04649 6.8715C5.28854 8.14616 4.73832 9.53335 4.41649 10.981C4.13999 12.4385 4.40549 13.315 4.79149 13.538C5.19149 13.7695 6.16249 13.55 7.34149 12.52C8.3865 11.5335 9.2686 10.3876 9.95499 9.125C10.6805 7.91776 11.2168 6.60657 11.5455 5.237C11.8725 3.6495 11.59 2.6775 11.189 2.4465C11.0387 2.38891 10.8781 2.36313 10.7173 2.37079C10.5566 2.37845 10.3991 2.41938 10.255 2.491C9.70083 2.71967 9.19135 3.04431 8.74999 3.45C7.67332 4.44039 6.76183 5.59647 6.04999 6.8745L6.04649 6.8715Z" fill="#00D8FF"/>
<path d="M10.8385 14.228C10.161 14.228 9.30049 13.818 8.40449 13.0475C7.25784 12.0041 6.28748 10.7822 5.53099 9.429C4.74636 8.11618 4.17683 6.68628 3.84399 5.1935C3.69965 4.53675 3.6729 3.8596 3.76499 3.1935C3.78628 2.94641 3.86152 2.70699 3.98541 2.49213C4.10929 2.27728 4.27881 2.09222 4.48199 1.95C5.22549 1.5195 6.48699 1.962 7.77449 3.105C8.84479 4.11609 9.75369 5.28535 10.4695 6.572C11.2536 7.85418 11.8291 9.25277 12.1745 10.7155C12.325 11.3964 12.3483 12.0992 12.243 12.7885C12.2179 13.0427 12.1382 13.2885 12.0093 13.509C11.8803 13.7295 11.7052 13.9195 11.496 14.066C11.2951 14.1774 11.0681 14.2333 10.8385 14.228ZM6.04849 9.128C6.77421 10.4212 7.70114 11.5907 8.79449 12.5925C9.91899 13.56 10.811 13.768 11.1945 13.5425C11.5945 13.31 11.8895 12.361 11.5855 10.8255C11.2524 9.42897 10.7004 8.09396 9.94999 6.87C9.26691 5.63856 8.39936 4.51893 7.37749 3.55C6.16549 2.474 5.18249 2.2335 4.78199 2.4655C4.65716 2.56694 4.55473 2.69316 4.48114 2.8362C4.40756 2.97923 4.36444 3.13596 4.35449 3.2965C4.27499 3.89055 4.30089 4.49395 4.43099 5.079C4.75114 6.50657 5.29736 7.87381 6.04899 9.129L6.04849 9.128Z" fill="#00D8FF"/>
</svg>
