<svg width="88" height="88" viewBox="0 0 88 88" fill="none" xmlns="http://www.w3.org/2000/svg">
<circle cx="44" cy="44" r="44" fill="white"/>
<path d="M57.5324 38.9803C57.0854 38.8286 56.6346 38.6881 56.1805 38.5589C56.2568 38.2505 56.327 37.9459 56.3893 37.6467C57.4128 32.7327 56.7437 28.7738 54.4585 27.4704C52.2674 26.2208 48.6841 27.5238 45.0653 30.6391C44.7086 30.9467 44.3599 31.2631 44.0194 31.5881C43.7914 31.372 43.5594 31.1601 43.3236 30.9524C39.5308 27.6215 35.7291 26.2176 33.4464 27.5247C31.2573 28.7782 30.6091 32.4998 31.5304 37.1569C31.6221 37.6182 31.7256 38.077 31.8408 38.5331C31.3027 38.6843 30.7835 38.8453 30.2865 39.0167C25.8398 40.5502 23 42.9534 23 45.4462C23 48.0208 26.0486 50.6032 30.6801 52.169C31.0556 52.2954 31.4342 52.4126 31.8156 52.5204C31.6917 53.0115 31.5817 53.506 31.4858 54.0033C30.6074 58.5796 31.2934 62.2132 33.4765 63.4587C35.7314 64.745 39.516 63.423 43.201 60.2366C43.4998 59.9776 43.7921 59.7112 44.0774 59.4377C44.4462 59.7897 44.8248 60.1313 45.2127 60.4624C48.7824 63.5006 52.3078 64.7274 54.4888 63.4785C56.7416 62.1886 57.4738 58.2851 56.5232 53.5359C56.4483 53.1639 56.3644 52.7936 56.2714 52.4256C56.5372 52.3477 56.798 52.2675 57.0523 52.1841C61.8672 50.6063 65 48.0552 65 45.4462C65 42.9443 62.0685 40.5249 57.5324 38.9803V38.9803ZM56.4881 50.4996C56.2584 50.5748 56.0228 50.6473 55.7826 50.7179C55.2511 49.0534 54.5338 47.2836 53.6559 45.4548C54.4936 43.6697 55.1833 41.9225 55.7 40.2688C56.1296 40.3918 56.5465 40.5215 56.9485 40.6583C60.8351 41.9818 63.2058 43.9385 63.2058 45.4462C63.2058 47.0521 60.6455 49.137 56.4881 50.4996V50.4996ZM54.7632 53.8806C55.1835 55.9805 55.2434 57.8792 54.965 59.3636C54.7149 60.6974 54.2119 61.5865 53.5898 61.9427C52.2663 62.7006 49.4357 61.7155 46.383 59.1171C46.0221 58.8093 45.67 58.4916 45.3269 58.1645C46.5105 56.8842 47.6932 55.396 48.8476 53.743C50.878 53.5648 52.7962 53.2733 54.5358 52.8756C54.6214 53.2175 54.6975 53.5528 54.7632 53.8806V53.8806ZM37.3187 61.8117C36.0256 62.2634 34.9956 62.2764 34.373 61.9213C33.0482 61.1655 32.4974 58.2479 33.2487 54.3343C33.338 53.8719 33.4402 53.412 33.5553 52.9551C35.2756 53.3316 37.1799 53.6023 39.2151 53.7655C40.3773 55.383 41.5942 56.8696 42.8206 58.1715C42.5599 58.4209 42.2931 58.664 42.0204 58.9004C40.3908 60.3093 38.7579 61.309 37.3187 61.8117V61.8117ZM31.2605 50.4897C29.2126 49.7973 27.5212 48.8974 26.362 47.9155C25.3202 47.0332 24.7944 46.157 24.7944 45.4462C24.7944 43.9334 27.0743 42.0039 30.8771 40.6925C31.3386 40.5335 31.8216 40.3834 32.3229 40.2425C32.8485 41.9335 33.5379 43.7015 34.3699 45.4894C33.5271 47.3037 32.8278 49.1 32.2971 50.8109C31.949 50.7123 31.6034 50.6052 31.2605 50.4897V50.4897ZM33.2913 36.816C32.502 32.826 33.0262 29.8162 34.3454 29.0607C35.7504 28.2561 38.8575 29.4033 42.1323 32.2796C42.3459 32.4676 42.556 32.6593 42.7625 32.8549C41.5422 34.151 40.3365 35.6266 39.1846 37.2345C37.2093 37.4156 35.3185 37.7064 33.5801 38.096C33.473 37.6719 33.3767 37.2451 33.2913 36.8161V36.816ZM51.4082 41.241C50.9976 40.5395 50.5718 39.8468 50.131 39.1634C51.4711 39.331 52.755 39.5535 53.9607 39.8255C53.5988 40.9731 53.1476 42.1729 52.6166 43.4029C52.2284 42.6744 51.8255 41.9536 51.4082 41.241V41.241ZM44.0202 34.1232C44.8477 35.0101 45.6766 36.0002 46.4918 37.0745C44.838 36.9972 43.1815 36.9969 41.5277 37.0735C42.3438 36.0091 43.1797 35.0203 44.0202 34.1232ZM36.5847 41.2532C36.1726 41.9601 35.7773 42.6764 35.399 43.4015C34.8766 42.1758 34.4296 40.9705 34.0645 39.8066C35.2629 39.5415 36.5407 39.3247 37.8723 39.1601C37.4266 39.8477 36.9973 40.5455 36.5847 41.253V41.2532ZM37.9105 51.8586C36.5348 51.7067 35.2378 51.5011 34.0398 51.243C34.4105 50.0584 34.8675 48.8275 35.4012 47.5755C35.7809 48.3012 36.1779 49.0179 36.5918 49.7251C37.0173 50.4521 37.458 51.1642 37.9105 51.8586ZM44.0697 56.8941C43.2192 55.9867 42.371 54.9826 41.5427 53.9028C42.3469 53.934 43.1667 53.9499 44 53.9499C44.8561 53.9499 45.7023 53.9309 46.5353 53.8942C45.7174 54.9935 44.8917 55.999 44.0697 56.8941ZM52.6335 47.5116C53.1949 48.7774 53.668 50.0018 54.0437 51.1661C52.8261 51.441 51.5113 51.6624 50.1259 51.8268C50.5698 51.1307 50.9997 50.4259 51.4153 49.7129C51.8378 48.9882 52.244 48.2542 52.6335 47.5116V47.5116ZM49.8611 48.8262C49.2249 49.9194 48.553 50.9918 47.8463 52.0418C46.5662 52.1315 45.2833 52.176 44 52.1754C42.6929 52.1754 41.4216 52.1351 40.1974 52.0566C39.4722 51.009 38.7874 49.9347 38.1444 48.8359H38.1446C37.5046 47.743 36.9069 46.6264 36.3526 45.4886C36.9054 44.3505 37.5014 43.2334 38.1392 42.1396L38.139 42.1397C38.7766 41.0457 39.4559 39.976 40.1755 38.9329C41.4245 38.8394 42.7054 38.7908 43.9998 38.7908H44C45.3004 38.7908 46.5828 38.8399 47.8315 38.9341C48.5439 39.9755 49.2189 41.0416 49.8552 42.1302C50.4951 43.2215 51.099 44.3332 51.6658 45.4634C51.1048 46.6052 50.5029 47.7268 49.8611 48.8262V48.8262ZM53.5624 29.0078C54.9687 29.8101 55.5157 33.0455 54.6321 37.2884C54.5756 37.559 54.5123 37.8348 54.4434 38.1144C52.7007 37.7165 50.8086 37.4206 48.8275 37.2368C47.6735 35.6112 46.4777 34.1333 45.2772 32.8539C45.5918 32.5539 45.9139 32.2617 46.2432 31.9776C49.344 29.3085 52.242 28.2547 53.5624 29.0078V29.0078ZM44 41.7365C46.0713 41.7365 47.7505 43.3974 47.7505 45.4462C47.7505 47.495 46.0713 49.156 44 49.156C41.9287 49.156 40.2495 47.495 40.2495 45.4462C40.2495 43.3974 41.9287 41.7365 44 41.7365V41.7365Z" fill="#00D8FF"/>
</svg>
