<svg width="15" height="15" viewBox="0 0 15 15" fill="none" xmlns="http://www.w3.org/2000/svg">
<path d="M12.2391 8.23687C11.8269 8.23742 11.4202 8.33167 11.0498 8.5125C10.9339 8.32005 10.8443 8.11288 10.7836 7.89656C10.7487 7.727 10.7406 7.553 10.7597 7.38094C10.7998 7.1916 10.8517 7.00498 10.9153 6.82219C10.913 6.79828 10.8867 6.68531 10.6228 6.68156C10.3589 6.67781 10.1316 6.73172 10.1072 6.80156C10.0614 6.92913 10.0245 7.05977 9.99703 7.1925C9.77862 7.73133 9.50977 8.24832 9.19407 8.73656C9.01719 8.4466 8.94444 8.105 8.98782 7.76812C9.02788 7.57879 9.07986 7.39216 9.14344 7.20937C9.1411 7.18547 9.11485 7.0725 8.85094 7.06875C8.58703 7.065 8.35969 7.11891 8.33532 7.18875C8.31094 7.25859 8.28 7.42312 8.22516 7.57969C8.17032 7.73625 7.53 9.16687 7.36219 9.53578C7.27594 9.72328 7.20141 9.87609 7.14891 9.97922C7.14642 9.98592 7.14328 9.99235 7.13953 9.99844L7.06782 10.1353V10.1377C7.03172 10.2023 6.99328 10.2623 6.97407 10.2623C6.94054 10.1284 6.94216 9.98811 6.97875 9.855C7.0725 9.35859 7.30219 8.58703 7.29985 8.56031C7.29985 8.54578 7.34297 8.41172 7.15125 8.34234C7.10679 8.32118 7.05686 8.31433 7.00833 8.32272C6.95981 8.33112 6.91509 8.35435 6.88032 8.38922C6.86344 8.38922 6.85172 8.43 6.85172 8.43C6.85172 8.43 7.06032 7.56234 6.45375 7.56234C6.21755 7.60986 5.99323 7.70413 5.79399 7.83961C5.59475 7.97509 5.42462 8.14905 5.2936 8.35125C5.13047 8.43984 4.78313 8.62922 4.41141 8.83312C4.27078 8.91234 4.1236 8.99156 3.98719 9.0675C3.97781 9.05812 3.96797 9.04594 3.9586 9.03656C3.22031 8.25 1.86328 7.695 1.92188 6.64265C1.94344 6.25922 2.07516 5.25234 4.52766 4.02937C6.5461 3.03469 8.1525 3.31031 8.43047 3.92156C8.82844 4.79437 7.56985 6.41484 5.48438 6.64969C5.25366 6.69649 5.01538 6.69085 4.78714 6.63316C4.5589 6.57547 4.34655 6.46722 4.16578 6.3164C4.05563 6.1964 4.03875 6.18937 3.99797 6.21328C3.93094 6.24937 3.97406 6.35719 3.99797 6.41953C4.07753 6.56351 4.18514 6.69008 4.31444 6.79176C4.44374 6.89345 4.59211 6.96819 4.75078 7.01156C5.57121 7.18885 6.42659 7.10408 7.19625 6.76922C8.46188 6.28031 9.44625 4.92094 9.1575 3.78234C8.86735 2.62687 6.94969 2.24578 5.13469 2.89172C3.99785 3.27425 2.94742 3.8768 2.04328 4.665C1.04344 5.60015 0.885471 6.4125 0.950158 6.75328C1.18453 7.96172 2.84906 8.74781 3.51516 9.33141C3.48506 9.34852 3.45475 9.36524 3.42422 9.38156C3.09094 9.54703 1.82063 10.2112 1.50235 10.9134C1.14281 11.7103 1.56 12.2798 1.83563 12.3567C2.25094 12.4561 2.68694 12.4234 3.08274 12.263C3.47855 12.1027 3.81441 11.8228 4.04344 11.4623C4.23847 11.1634 4.35835 10.8217 4.39287 10.4664C4.4274 10.1112 4.37554 9.75279 4.24172 9.42187C4.23946 9.41652 4.23629 9.41161 4.23235 9.40734L4.49344 9.25406C4.65209 9.16028 4.81275 9.06994 4.97532 8.98312C4.87773 9.26458 4.82045 9.55843 4.80516 9.85594C4.77203 10.3119 4.91157 10.7637 5.1961 11.1216C5.23939 11.1588 5.28965 11.1871 5.34396 11.2048C5.39828 11.2225 5.45556 11.2293 5.5125 11.2247C5.79375 11.2247 5.92266 10.9903 6.06375 10.7119C6.23625 10.3716 6.39188 9.97594 6.39188 9.97594C6.39188 9.97594 6.19782 11.0452 6.72516 11.0452C6.91688 11.0452 7.11094 10.7958 7.19766 10.6702V10.6725L7.21219 10.6486L7.24313 10.5984V10.5937C7.32 10.4597 7.4925 10.155 7.74891 9.64922C8.07985 8.99719 8.3986 8.18203 8.3986 8.18203C8.42934 8.36117 8.47177 8.53812 8.52563 8.71172C8.60283 8.92216 8.69413 9.12715 8.79891 9.32531C8.72203 9.43312 8.67422 9.49312 8.67422 9.49312L8.67657 9.49547C8.61422 9.57703 8.54719 9.66562 8.47266 9.75187C8.25091 9.99567 8.04517 10.2535 7.85672 10.5239C7.82872 10.5693 7.8191 10.6237 7.82981 10.676C7.84052 10.7282 7.87077 10.7744 7.91438 10.8052C8.01306 10.8565 8.12553 10.8751 8.23547 10.8581C8.40115 10.8488 8.56406 10.8115 8.71735 10.748C8.86548 10.6958 9.00523 10.6224 9.13219 10.53C9.26308 10.4393 9.36844 10.3165 9.43814 10.1733C9.50783 10.0302 9.53952 9.87146 9.53016 9.7125C9.51542 9.51227 9.46427 9.3164 9.37922 9.13453C9.40313 9.10078 9.4261 9.0675 9.4486 9.03375C9.7151 8.63596 9.9553 8.22117 10.1677 7.79203C10.1984 7.97117 10.2408 8.14812 10.2947 8.32172C10.3584 8.50357 10.4368 8.67994 10.5291 8.84906C10.2225 9.08494 9.98099 9.39499 9.82735 9.75C9.67641 10.1864 9.7936 10.3828 10.0148 10.4283C10.1359 10.4366 10.257 10.4118 10.365 10.3566C10.5239 10.3044 10.6735 10.2275 10.8084 10.1287C10.9507 10.0448 11.0699 9.92674 11.1553 9.78526C11.2406 9.64379 11.2894 9.48331 11.2973 9.31828C11.2867 9.15355 11.2495 8.99161 11.1872 8.83875C11.5918 8.68069 12.0304 8.6303 12.4603 8.6925C13.6013 8.82656 13.8267 9.53859 13.7836 9.83859C13.7634 9.94495 13.7206 10.0457 13.6582 10.1342C13.5958 10.2226 13.5151 10.2967 13.4217 10.3514C13.3425 10.4016 13.3163 10.4184 13.3233 10.4545C13.3327 10.5075 13.3702 10.5047 13.4381 10.4953C13.6101 10.4419 13.7618 10.3376 13.8733 10.1961C13.9847 10.0547 14.0507 9.88281 14.0625 9.70312C14.0986 9 13.4273 8.22891 12.2405 8.23594L12.2391 8.23687ZM3.43594 11.2031C3.05719 11.6156 2.52985 11.7712 2.30203 11.6395C2.05735 11.4989 2.15344 10.8895 2.61844 10.4527C2.89428 10.2044 3.19241 9.98201 3.50906 9.78844C3.56438 9.75469 3.64594 9.70687 3.74344 9.64781L3.76969 9.63328L3.82735 9.59719C3.91042 9.87553 3.91795 10.171 3.84917 10.4532C3.78039 10.7354 3.63777 10.9942 3.43594 11.2031V11.2031ZM6.19266 9.32812C6.06094 9.64922 5.78532 10.4719 5.6175 10.4259C5.4736 10.3875 5.38313 9.76406 5.58891 9.14812C5.69281 8.85162 5.84415 8.57394 6.03703 8.32594C6.24328 8.09578 6.4711 8.0189 6.52594 8.11265C6.4759 8.53213 6.36357 8.94179 6.19266 9.32812V9.32812ZM8.4675 10.4166C8.41219 10.4452 8.35969 10.4634 8.33578 10.4503C8.31891 10.4409 8.35969 10.4034 8.35969 10.4034C8.35969 10.4034 8.64516 10.0964 8.75766 9.95766C8.82235 9.87609 8.89828 9.78047 8.98078 9.67219V9.70312C8.98078 10.0697 8.62594 10.3167 8.46797 10.4175L8.4675 10.4166ZM10.2225 10.0162C10.1817 9.98766 10.1888 9.89156 10.3256 9.59203C10.4208 9.39966 10.5538 9.22844 10.7166 9.08859C10.7415 9.15955 10.7545 9.23416 10.755 9.30937C10.7568 9.46947 10.7057 9.62568 10.6094 9.75363C10.5132 9.88158 10.3773 9.97409 10.223 10.0167L10.2225 10.0162Z" fill="#CD6799"/>
</svg>
