<svg width="88" height="88" viewBox="0 0 88 88" fill="none" xmlns="http://www.w3.org/2000/svg">
<circle cx="44" cy="44" r="44" fill="white"/>
<path d="M57.5577 42.2194C56.596 42.2207 55.6471 42.4406 54.7829 42.8626C54.5123 42.4135 54.3033 41.9301 54.1616 41.4254C54.0802 41.0297 54.0614 40.6237 54.1058 40.2222C54.1993 39.7805 54.3206 39.345 54.469 38.9185C54.4635 38.8627 54.4022 38.5991 53.7865 38.5904C53.1707 38.5816 52.6402 38.7074 52.5833 38.8704C52.4764 39.168 52.3905 39.4728 52.3263 39.7826C51.8167 41.0398 51.1894 42.2461 50.4527 43.3854C50.04 42.7088 49.8702 41.9117 49.9715 41.1257C50.065 40.6839 50.1862 40.2484 50.3346 39.8219C50.3291 39.7661 50.2679 39.5026 49.6521 39.4938C49.0363 39.4851 48.5058 39.6108 48.449 39.7738C48.3921 39.9368 48.3199 40.3207 48.1919 40.686C48.064 41.0513 46.5699 44.3894 46.1783 45.2502C45.9771 45.6877 45.8032 46.0443 45.6807 46.2849C45.6749 46.3005 45.6675 46.3155 45.6588 46.3297L45.4915 46.6491V46.6546C45.4072 46.8055 45.3176 46.9455 45.2727 46.9455C45.1945 46.633 45.1983 46.3057 45.2836 45.9951C45.5024 44.8368 46.0383 43.0365 46.0329 42.9741C46.0329 42.9402 46.1335 42.6274 45.6861 42.4655C45.5824 42.4162 45.4659 42.4002 45.3527 42.4197C45.2395 42.4393 45.1351 42.4935 45.054 42.5749C45.0146 42.5749 44.9872 42.6701 44.9872 42.6701C44.9872 42.6701 45.474 40.6455 44.0586 40.6455C43.5075 40.7564 42.9841 40.9764 42.5192 41.2925C42.0543 41.6086 41.6573 42.0145 41.3516 42.4863C40.971 42.693 40.1605 43.1349 39.2932 43.6107C38.9651 43.7955 38.6216 43.9804 38.3033 44.1576C38.2815 44.1357 38.2585 44.1072 38.2366 44.0854C36.514 42.2501 33.3476 40.9551 33.4843 38.4996C33.5346 37.6049 33.8419 35.2555 39.5644 32.4019C44.2741 30.081 48.0224 30.7241 48.671 32.1504C49.5996 34.1869 46.6629 37.968 41.7968 38.516C41.2584 38.6252 40.7024 38.612 40.1699 38.4774C39.6373 38.3428 39.1418 38.0902 38.7201 37.7383C38.463 37.4583 38.4236 37.4419 38.3285 37.4977C38.1721 37.5819 38.2727 37.8335 38.3285 37.979C38.5141 38.3149 38.7652 38.6102 39.0669 38.8475C39.3686 39.0848 39.7148 39.2592 40.0851 39.3604C41.9994 39.774 43.9953 39.5763 45.7911 38.7949C48.7443 37.6541 51.0411 34.4822 50.3674 31.8255C49.6904 29.1294 45.2158 28.2402 40.9808 29.7474C38.3282 30.64 35.8772 32.0459 33.7676 33.8851C31.4346 36.0671 31.066 37.9626 31.2169 38.7577C31.7638 41.5774 35.6477 43.4116 37.2019 44.7733C37.1317 44.8133 37.061 44.8523 36.9897 44.8904C36.2121 45.2765 33.248 46.8263 32.5054 48.4647C31.6665 50.3241 32.6399 51.653 33.283 51.8324C34.2521 52.0644 35.2694 51.988 36.193 51.6138C37.1165 51.2397 37.9002 50.5865 38.4346 49.7455C38.8897 49.0479 39.1694 48.2507 39.2499 47.4217C39.3305 46.5927 39.2095 45.7566 38.8972 44.9844C38.892 44.9719 38.8846 44.9605 38.8754 44.9505L39.4846 44.5929C39.8548 44.374 40.2296 44.1633 40.609 43.9607C40.3813 44.6174 40.2476 45.3031 40.2119 45.9972C40.1346 47.0612 40.4602 48.1153 41.1241 48.9504C41.2251 49.0373 41.3424 49.1034 41.4691 49.1447C41.5959 49.186 41.7295 49.2017 41.8624 49.191C42.5186 49.191 42.8194 48.6441 43.1486 47.9944C43.5511 47.2004 43.9143 46.2772 43.9143 46.2772C43.9143 46.2772 43.4615 48.7721 44.6919 48.7721C45.1393 48.7721 45.5921 48.1902 45.7944 47.8971V47.9026L45.8283 47.8468L45.9005 47.7297V47.7188C46.0799 47.406 46.4824 46.6951 47.0807 45.5149C47.8529 43.9935 48.5966 42.0915 48.5966 42.0915C48.6684 42.5095 48.7674 42.9223 48.893 43.3274C49.0732 43.8184 49.2862 44.2967 49.5307 44.7591C49.3513 45.0107 49.2397 45.1507 49.2397 45.1507L49.2452 45.1561C49.0997 45.3465 48.9433 45.5532 48.7694 45.7544C48.252 46.3233 47.772 46.925 47.3322 47.5558C47.2669 47.6618 47.2445 47.7887 47.2695 47.9106C47.2944 48.0326 47.365 48.1404 47.4668 48.2121C47.697 48.3319 47.9595 48.3752 48.216 48.3357C48.6026 48.3139 48.9827 48.227 49.3404 48.0787C49.686 47.957 50.0121 47.7857 50.3083 47.5701C50.6137 47.3585 50.8596 47.0719 51.0222 46.7378C51.1848 46.4037 51.2588 46.0335 51.2369 45.6626C51.2025 45.1953 51.0832 44.7383 50.8847 44.314C50.9405 44.2352 50.9941 44.1576 51.0466 44.0788C51.6685 43.1506 52.2289 42.1828 52.7244 41.1815C52.7962 41.5995 52.8952 42.0123 53.0208 42.4174C53.1694 42.8417 53.3523 43.2532 53.5677 43.6479C52.8523 44.1983 52.2889 44.9217 51.9304 45.7501C51.5782 46.7683 51.8516 47.2266 52.3679 47.3327C52.6504 47.3522 52.9328 47.2943 53.1849 47.1654C53.5555 47.0436 53.9047 46.8642 54.2196 46.6338C54.5516 46.4379 54.8297 46.1624 55.0288 45.8323C55.228 45.5022 55.3419 45.1278 55.3604 44.7427C55.3355 44.3583 55.2487 43.9805 55.1033 43.6238C56.0474 43.255 57.0709 43.1374 58.074 43.2826C60.7362 43.5954 61.2622 45.2568 61.1616 45.9568C61.1144 46.2049 61.0147 46.4401 60.869 46.6465C60.7234 46.8529 60.5352 47.0257 60.3172 47.1533C60.1324 47.2704 60.0712 47.3097 60.0876 47.394C60.1094 47.5176 60.1969 47.511 60.3555 47.4891C60.7568 47.3644 61.1108 47.121 61.3709 46.791C61.6309 46.461 61.7849 46.0599 61.8124 45.6407C61.8966 44.0001 60.3304 42.2008 57.561 42.2172L57.5577 42.2194ZM37.0171 49.1407C36.1333 50.1032 34.9029 50.4663 34.3713 50.159C33.8004 49.8308 34.0246 48.409 35.1096 47.3896C35.7532 46.8102 36.4489 46.2914 37.1877 45.8397C37.3168 45.761 37.5071 45.6494 37.7346 45.5116L37.7958 45.4777L37.9304 45.3935C38.1242 46.043 38.1418 46.7323 37.9813 47.3908C37.8208 48.0493 37.488 48.6532 37.0171 49.1407V49.1407ZM43.4494 44.7657C43.1421 45.5149 42.499 47.4344 42.1074 47.3272C41.7716 47.2376 41.5605 45.7829 42.0407 44.3457C42.2831 43.6538 42.6362 43.0059 43.0863 42.4272C43.5676 41.8902 44.0991 41.7108 44.2271 41.9296C44.1103 42.9084 43.8482 43.8642 43.4494 44.7657V44.7657ZM48.7574 47.3054C48.6283 47.3721 48.5058 47.4147 48.4501 47.3841C48.4107 47.3622 48.5058 47.2747 48.5058 47.2747C48.5058 47.2747 49.1719 46.5583 49.4344 46.2346C49.5854 46.0443 49.7626 45.8212 49.9551 45.5685V45.6407C49.9551 46.496 49.1271 47.0724 48.7585 47.3076L48.7574 47.3054ZM52.8524 46.3713C52.7572 46.3046 52.7737 46.0804 53.093 45.3815C53.3151 44.9326 53.6253 44.5331 54.0052 44.2068C54.0634 44.3723 54.0938 44.5464 54.0949 44.7219C54.0992 45.0955 53.9798 45.46 53.7552 45.7585C53.5306 46.0571 53.2136 46.2729 52.8535 46.3724L52.8524 46.3713Z" fill="#CD6799"/>
</svg>
