<svg width="15" height="15" viewBox="0 0 15 15" fill="none" xmlns="http://www.w3.org/2000/svg">
<path fill-rule="evenodd" clip-rule="evenodd" d="M14.375 0H0.625C0.45924 0 0.300269 0.065848 0.183058 0.183058C0.065848 0.300269 0 0.45924 0 0.625L0 14.375C0 14.5408 0.065848 14.6997 0.183058 14.8169C0.300269 14.9342 0.45924 15 0.625 15H7.96875V9.375H6.09375V7.03125H7.96875V5.15625C7.96875 3.21875 9.19563 2.26562 10.9238 2.26562C11.7513 2.26562 12.4631 2.3275 12.67 2.35437V4.37937L11.4719 4.38C10.5319 4.38 10.3125 4.82687 10.3125 5.48187V7.03125H12.6562L12.1875 9.375H10.3125L10.35 15H14.375C14.5408 15 14.6997 14.9342 14.8169 14.8169C14.9342 14.6997 15 14.5408 15 14.375V0.625C15 0.45924 14.9342 0.300269 14.8169 0.183058C14.6997 0.065848 14.5408 0 14.375 0" fill="#000016"/>
</svg>
