<svg width="15" height="15" viewBox="0 0 15 15" fill="none" xmlns="http://www.w3.org/2000/svg">
<g clip-path="url(#clip0)">
<path d="M3.87562 13.125H1.15453V4.36219H3.87562V13.125ZM2.51344 3.16688C1.64344 3.16688 0.9375 2.44594 0.9375 1.57594C0.9375 1.15797 1.10354 0.757127 1.39908 0.461581C1.69463 0.166036 2.09547 0 2.51344 0C2.9314 0 3.33225 0.166036 3.62779 0.461581C3.92334 0.757127 4.08937 1.15797 4.08937 1.57594C4.08937 2.44594 3.38344 3.16688 2.51344 3.16688ZM14.0597 13.125H11.3447V8.85937C11.3447 7.84266 11.3241 6.53906 9.93 6.53906C8.51531 6.53906 8.29828 7.64344 8.29828 8.78625V13.125H5.58V4.36219H8.18953V5.5575H8.2275C8.59078 4.86891 9.47813 4.14234 10.8019 4.14234C13.5558 4.14234 14.062 5.95594 14.062 8.31141V13.125H14.0597Z" fill="#000016"/>
</g>
<defs>
<clipPath id="clip0">
<rect width="15" height="15" fill="white"/>
</clipPath>
</defs>
</svg>
