<svg width="37" height="37" viewBox="0 0 37 37" fill="none" xmlns="http://www.w3.org/2000/svg">
<rect width="37" height="37" rx="4" fill="#000016"/>
<path fill-rule="evenodd" clip-rule="evenodd" d="M12 22L19 15L26 22H19H12Z" fill="white"/>
<path d="M19 15L19.3536 14.6464C19.1583 14.4512 18.8417 14.4512 18.6464 14.6464L19 15ZM12 22L11.6464 21.6464C11.5034 21.7894 11.4607 22.0045 11.5381 22.1913C11.6155 22.3782 11.7978 22.5 12 22.5V22ZM26 22V22.5C26.2022 22.5 26.3845 22.3782 26.4619 22.1913C26.5393 22.0045 26.4966 21.7894 26.3536 21.6464L26 22ZM18.6464 14.6464L11.6464 21.6464L12.3536 22.3536L19.3536 15.3536L18.6464 14.6464ZM18.6464 15.3536L25.6464 22.3536L26.3536 21.6464L19.3536 14.6464L18.6464 15.3536ZM26 21.5H19V22.5H26V21.5ZM12 22.5H19V21.5H12V22.5Z" fill="white"/>
</svg>
